Coordinates
version=1
nRows=65
nColumns=12
inDegrees=yes

Units are S.I. units (second, meters, Newtons, ...)
Angles are in degrees

endheader
time	SC_y	SC_z	SC_x	AC_y	AC_z	AC_x	GH_y	GH_z	GH_yy	EL_x	PS_y
       0.0              -41.39          3.502          4.361          57.45         -14.75          2.453         -156.1           31.0         -8.348          92.56          19.18
   0.03025              -41.39          3.504          4.367          57.45         -14.75           2.45         -156.1           31.0         -8.364          92.56           19.2
   0.06051              -41.39          3.507          4.374          57.45         -14.75          2.448         -156.0           31.0         -8.381          92.56          19.22
   0.09076              -41.39           3.51           4.38          57.46         -14.75          2.445         -156.0          31.01         -8.399          92.56          19.24
     0.121              -41.39          3.513          4.388          57.46         -14.75          2.443         -155.9          31.01         -8.418          92.56          19.26
    0.1513              -41.39          3.516          4.395          57.46         -14.74           2.44         -155.9          31.01         -8.438          92.56          19.29
    0.1815              -41.39           3.52          4.404          57.46         -14.74          2.437         -155.8          31.02          -8.46          92.56          19.31
    0.2118              -41.39          3.524          4.412          57.46         -14.74          2.434         -155.7          31.02         -8.483          92.56          19.34
     0.242              -41.39          3.528          4.422          57.46         -14.74           2.43         -155.7          31.02         -8.508          92.56          19.37
    0.2723              -41.39          3.532          4.432          57.46         -14.73          2.426         -155.6          31.03         -8.535          92.55           19.4
    0.3025               -41.4          3.536          4.443          57.47         -14.73          2.422         -155.5          31.03         -8.563          92.55          19.44
    0.3328               -41.4          3.541          4.454          57.47         -14.73          2.418         -155.4          31.04         -8.594          92.55          19.48
     0.363               -41.4          3.547          4.467          57.47         -14.73          2.413         -155.3          31.05         -8.627          92.55          19.52
    0.3933               -41.4          3.552          4.481          57.47         -14.72          2.408         -155.2          31.05         -8.663          92.55          19.56
    0.4236               -41.4          3.559          4.495          57.48         -14.72          2.403         -155.1          31.06         -8.702          92.55          19.61
    0.4538               -41.4          3.565          4.511          57.48         -14.72          2.397         -155.0          31.07         -8.744          92.54          19.66
    0.4841              -41.41          3.573          4.529          57.48         -14.71           2.39         -154.9          31.08         -8.789          92.54          19.71
    0.5143              -41.41          3.581          4.548          57.48         -14.71          2.383         -154.7          31.08         -8.839          92.54          19.78
    0.5446              -41.41          3.589          4.568          57.49          -14.7          2.376         -154.6          31.09         -8.894          92.54          19.84
    0.5748              -41.42          3.599          4.591          57.49          -14.7          2.367         -154.4           31.1         -8.953          92.53          19.91
    0.6051              -41.42           3.61          4.616           57.5         -14.69          2.358         -154.2          31.12         -9.018          92.53          19.99
    0.6353              -41.42          3.621          4.643           57.5         -14.68          2.348         -154.0          31.13          -9.09          92.53          20.08
    0.6656              -41.43          3.634          4.674          57.51         -14.68          2.337         -153.8          31.14          -9.17          92.52          20.18
    0.6958              -41.43          3.648          4.707          57.51         -14.67          2.325         -153.6          31.16         -9.258          92.52          20.29
    0.7261              -41.43          3.664          4.744          57.52         -14.66          2.311         -153.3          31.18         -9.356          92.51          20.41
    0.7563              -41.44          3.681          4.786          57.52         -14.65          2.295         -153.0           31.2         -9.465          92.51          20.54
    0.7866              -41.45          3.701          4.832          57.53         -14.64          2.278         -152.6          31.22         -9.587           92.5          20.69
    0.8169              -41.45          3.723          4.885          57.54         -14.62          2.259         -152.3          31.24         -9.725          92.49          20.86
    0.8471              -41.46          3.748          4.944          57.55         -14.61          2.237         -151.8          31.27          -9.88          92.48          21.05
    0.8774              -41.47          3.776          5.011          57.56         -14.59          2.212         -151.3           31.3         -10.06          92.48          21.26
    0.9076              -41.48          3.809          5.088          57.58         -14.57          2.184         -150.8          31.34         -10.26          92.47          21.51
    0.9379              -41.49          3.846          5.176          57.59         -14.55          2.151         -150.1          31.38         -10.49          92.45          21.79
    0.9681               -41.5          3.889          5.277          57.61         -14.53          2.114         -149.4          31.43         -10.76          92.44          22.12
    0.9984              -41.52          3.939          5.395          57.63          -14.5           2.07         -148.5          31.48         -11.07          92.42           22.5
     1.029              -41.54          3.997          5.533          57.65         -14.47          2.019         -147.5          31.55         -11.43           92.4          22.94
     1.059              -41.56          4.066          5.696          57.68         -14.43          1.959         -146.3          31.62         -11.86          92.38          23.46
     1.089              -41.58          4.147           5.89          57.71         -14.38          1.887         -144.9          31.71         -12.37          92.36          24.08
     1.119              -41.61          4.245          6.121          57.75         -14.32          1.801         -143.2          31.82         -12.98          92.32          24.83
      1.15              -41.65          4.364          6.402           57.8         -14.25          1.697         -141.1          31.95         -13.71          92.29          25.73
      1.18              -41.69          4.508          6.745          57.86         -14.17          1.571         -138.6          32.11         -14.61          92.24          26.83
      1.21              -41.75          4.687          7.168          57.93         -14.07          1.414         -135.5          32.31         -15.73          92.18          28.19
      1.24              -41.82           4.91          7.695          58.02         -13.94          1.219         -131.6          32.56         -17.11          92.11          29.88
     1.271               -41.9           5.19          8.359          58.14         -13.77         0.9731         -126.7          32.87         -18.86          92.02          32.01
     1.301              -42.01          5.547          9.204          58.28         -13.57         0.6606         -120.5          33.27         -21.08           91.9          34.73
     1.331              -42.15          6.004          10.28          58.47          -13.3         0.2606         -112.6          33.77         -23.92          91.76           38.2
     1.361              -42.33          6.589          11.67           58.7         -12.96        -0.2527         -102.4          34.42         -27.57          91.57          42.65
     1.392              -42.56          7.338          13.44          59.01         -12.53        -0.9084         -89.41          35.25         -32.23          91.33          48.34
     1.422              -42.84          8.279          15.67          59.39         -11.99         -1.733         -73.06           36.3         -38.08          91.02           55.5
     1.452              -43.19          9.425          18.39          59.86         -11.32         -2.737         -53.12          37.57         -45.22          90.65          64.22
     1.482               -43.6          10.75          21.53          60.39         -10.55         -3.902         -30.01          39.04          -53.5          90.22          74.32
     1.513              -44.04          12.19          24.94          60.98         -9.718         -5.163         -4.991          40.64         -62.45          89.76          85.26
     1.543              -44.48          13.63          28.35          61.56         -8.885         -6.424          20.03          42.24         -71.41          89.29          96.21
     1.573              -44.88          14.96           31.5           62.1         -8.115         -7.589          43.14          43.71         -79.69          88.86          106.3
     1.603              -45.23          16.11          34.21          62.57         -7.451         -8.593          63.07          44.98         -86.82          88.49          115.0
     1.634              -45.52          17.05          36.44          62.95         -6.906         -9.418          79.43          46.03         -92.68          88.19          122.2
     1.664              -45.75           17.8          38.21          63.25         -6.473         -10.07          92.44          46.86         -97.34          87.95          127.9
     1.694              -45.93          18.38           39.6          63.49         -6.133         -10.59          102.6          47.51         -101.0          87.76          132.3
     1.724              -46.07          18.84          40.68          63.67         -5.869         -10.99          110.6          48.01         -103.8          87.61          135.8
     1.755              -46.18           19.2          41.53          63.82         -5.662          -11.3          116.8          48.41         -106.0           87.5          138.5
     1.785              -46.26          19.48          42.19          63.93           -5.5         -11.55          121.6          48.72         -107.8          87.41          140.6
     1.815              -46.33           19.7          42.72          64.02         -5.371         -11.74          125.5          48.97         -109.2          87.33          142.3
     1.845              -46.38          19.88          43.14           64.1         -5.267          -11.9          128.6          49.16         -110.3          87.28          143.7
     1.876              -46.43          20.02          43.48          64.15         -5.184         -12.02          131.1          49.33         -111.2          87.23          144.8
     1.906              -46.47          20.14          43.76           64.2         -5.115         -12.13          133.2          49.46         -111.9          87.19          145.7
     1.936              -46.49          20.24           44.0          64.24         -5.058         -12.21          134.9          49.57         -112.5          87.16          146.4
